<svg width="26" height="26" viewBox="0 0 26 26" fill="none" xmlns="http://www.w3.org/2000/svg">
<g id="Hamburger Menu">
<path id="Shape" fill-rule="evenodd" clip-rule="evenodd" d="M2.59998 5.56665C2.32383 5.56665 2.09998 5.79051 2.09998 6.06665C2.09998 6.34279 2.32383 6.56665 2.59998 6.56665H23.4C23.6761 6.56665 23.9 6.34279 23.9 6.06665C23.9 5.79051 23.6761 5.56665 23.4 5.56665H2.59998ZM2.09998 13C2.09998 12.7238 2.32383 12.5 2.59998 12.5H23.4C23.6761 12.5 23.9 12.7238 23.9 13C23.9 13.2761 23.6761 13.5 23.4 13.5H2.59998C2.32383 13.5 2.09998 13.2761 2.09998 13ZM2.09998 19.9333C2.09998 19.6572 2.32383 19.4333 2.59998 19.4333H23.4C23.6761 19.4333 23.9 19.6572 23.9 19.9333C23.9 20.2095 23.6761 20.4333 23.4 20.4333H2.59998C2.32383 20.4333 2.09998 20.2095 2.09998 19.9333Z" fill="black"/>
</g>
</svg>
