<svg width="86" height="86" viewBox="0 0 86 86" fill="none" xmlns="http://www.w3.org/2000/svg">
<g id="Group 467">
<rect id="Rectangle 74" x="0.75" y="0.75" width="84.5" height="84.5" stroke="#111010" strokeWidth="1.5"/>
<path id="Vector" d="M4 4H9.46721L14.4405 18.549H14.5234L19.4948 4H25.0035V32.77H19.1253V18.304H19.0424L15.5886 27.9216H13.4093L9.9159 18.304H9.83295V32.7719H4V4Z" fill="black"/>
<path id="Vector_2" d="M61.0019 53H66.3932L71.2975 67.549H71.3793L76.2835 53H81.7158V81.77H75.9192V67.304H75.8374L72.4315 76.9216H70.2824L66.8375 67.304H66.7557V81.7719H61V53H61.0019Z" fill="black"/>
<path id="Vector_3" d="M49.1702 29H47.1458H37.8578H35.26H32V57.4842H37.8578V47.5776H47.1458V57.4842H53.0035V29H49.1702ZM37.8578 42.1839V34.3937H47.1458V42.1839H37.8578Z" fill="black"/>
</g>
</svg>
