<svg width="29" height="28" viewBox="0 0 29 28" fill="none" xmlns="http://www.w3.org/2000/svg">
<g id="Instagram">
<rect id="Rectangle" x="0.833328" width="27.5" height="27.5" rx="13.75" fill="#111010"/>
<path id="Vector" d="M11.7195 13.75C11.7195 12.168 13.0017 10.8852 14.5837 10.8852C16.1657 10.8852 17.4485 12.168 17.4485 13.75C17.4485 15.332 16.1657 16.6148 14.5837 16.6148C13.0017 16.6148 11.7195 15.332 11.7195 13.75ZM10.1709 13.75C10.1709 16.1872 12.1465 18.1628 14.5837 18.1628C17.0209 18.1628 18.9964 16.1872 18.9964 13.75C18.9964 11.3128 17.0209 9.33721 14.5837 9.33721C12.1465 9.33721 10.1709 11.3128 10.1709 13.75ZM18.1399 9.16224C18.1398 9.36621 18.2002 9.56561 18.3135 9.73525C18.4267 9.90488 18.5877 10.0371 18.7761 10.1152C18.9645 10.1934 19.1719 10.2139 19.3719 10.1742C19.572 10.1345 19.7558 10.0363 19.9001 9.89215C20.0443 9.74799 20.1426 9.56427 20.1825 9.36425C20.2224 9.16422 20.202 8.95686 20.1241 8.76839C20.0461 8.57993 19.914 8.41882 19.7444 8.30543C19.5749 8.19205 19.3755 8.13149 19.1716 8.13141H19.1711C18.8977 8.13153 18.6356 8.24017 18.4422 8.43345C18.2489 8.62673 18.1401 8.88885 18.1399 9.16224ZM11.1118 20.7451C10.2739 20.707 9.81853 20.5674 9.51589 20.4495C9.11467 20.2933 8.82839 20.1072 8.52741 19.8067C8.22642 19.5061 8.04011 19.2201 7.88459 18.8189C7.76662 18.5164 7.62706 18.0608 7.58897 17.223C7.54731 16.3171 7.53899 16.045 7.53899 13.7501C7.53899 11.4551 7.54799 11.1838 7.58897 10.2772C7.62713 9.43931 7.76772 8.98466 7.88459 8.68127C8.04079 8.28004 8.22683 7.99377 8.52741 7.69278C8.82798 7.39179 9.11398 7.20548 9.51589 7.04997C9.81839 6.93199 10.2739 6.79243 11.1118 6.75434C12.0176 6.71268 12.2898 6.70436 14.5837 6.70436C16.8776 6.70436 17.15 6.71337 18.0566 6.75434C18.8944 6.7925 19.3491 6.93309 19.6525 7.04997C20.0537 7.20548 20.34 7.39221 20.641 7.69278C20.9419 7.99336 21.1276 8.28004 21.2838 8.68127C21.4017 8.98377 21.5413 9.43931 21.5794 10.2772C21.621 11.1838 21.6294 11.4551 21.6294 13.7501C21.6294 16.045 21.621 16.3164 21.5794 17.223C21.5412 18.0608 21.401 18.5162 21.2838 18.8189C21.1276 19.2201 20.9415 19.5064 20.641 19.8067C20.3404 20.107 20.0537 20.2933 19.6525 20.4495C19.35 20.5675 18.8944 20.707 18.0566 20.7451C17.1507 20.7868 16.8786 20.7951 14.5837 20.7951C12.2887 20.7951 12.0174 20.7868 11.1118 20.7451ZM11.0406 5.20829C10.1258 5.24996 9.50063 5.39502 8.95469 5.60746C8.38929 5.82684 7.91065 6.12116 7.43236 6.59869C6.95406 7.07623 6.6605 7.55562 6.44112 8.12102C6.22868 8.66731 6.08362 9.29211 6.04196 10.207C5.99961 11.1233 5.98991 11.4162 5.98991 13.75C5.98991 16.0838 5.99961 16.3767 6.04196 17.293C6.08362 18.208 6.22868 18.8327 6.44112 19.379C6.6605 19.944 6.95413 20.424 7.43236 20.9013C7.91058 21.3786 8.38929 21.6725 8.95469 21.8925C9.50166 22.105 10.1258 22.25 11.0406 22.2917C11.9574 22.3334 12.2499 22.3438 14.5837 22.3438C16.9174 22.3438 17.2104 22.3341 18.1267 22.2917C19.0416 22.25 19.6663 22.105 20.2126 21.8925C20.7777 21.6725 21.2567 21.3788 21.735 20.9013C22.2133 20.4238 22.5062 19.944 22.7262 19.379C22.9386 18.8327 23.0844 18.2079 23.1254 17.293C23.167 16.376 23.1767 16.0838 23.1767 13.75C23.1767 11.4162 23.167 11.1233 23.1254 10.207C23.0837 9.29204 22.9386 8.66697 22.7262 8.12102C22.5062 7.55597 22.2125 7.07699 21.735 6.59869C21.2574 6.1204 20.7777 5.82684 20.2133 5.60746C19.6664 5.39502 19.0415 5.24927 18.1274 5.20829C17.2111 5.16663 16.9181 5.15625 14.5843 5.15625C12.2506 5.15625 11.9574 5.16594 11.0406 5.20829Z" fill="#FBFAF7"/>
</g>
</svg>
