<svg width="28" height="28" viewBox="0 0 28 28" fill="none" xmlns="http://www.w3.org/2000/svg">
<g id="Twitter">
<rect id="Rectangle" width="27.5" height="27.5" rx="13.75" fill="#111010"/>
<path id="Path" d="M20.4889 10.778C20.4889 10.9283 20.4889 11.0787 20.4889 11.2076C20.4889 15.6549 17.0944 20.7897 10.9069 20.7897C8.99479 20.7897 7.23307 20.2311 5.72917 19.2858C5.98698 19.3072 6.26628 19.3287 6.52409 19.3287C8.09245 19.3287 9.55339 18.7916 10.7135 17.8893C9.23112 17.8678 7.98503 16.8795 7.57682 15.5475C7.79167 15.5905 7.98503 15.6119 8.22135 15.6119C8.52214 15.6119 8.82292 15.569 9.10221 15.483C7.55534 15.1822 6.39518 13.8287 6.39518 12.1959C6.39518 12.1744 6.39518 12.1744 6.39518 12.153C6.84636 12.4108 7.36198 12.5612 7.92057 12.5826C7.01823 11.9811 6.41667 10.9498 6.41667 9.76819C6.41667 9.14514 6.58854 8.56506 6.86784 8.07092C8.52214 10.1119 11.0143 11.444 13.8073 11.5944C13.7428 11.358 13.7214 11.0787 13.7214 10.8209C13.7214 8.95178 15.2253 7.44788 17.0944 7.44788C18.0612 7.44788 18.9421 7.85608 19.5436 8.50061C20.3171 8.35022 21.026 8.07092 21.6921 7.6842C21.4342 8.47913 20.8971 9.12366 20.2096 9.55334C20.8971 9.46741 21.5417 9.29553 22.1432 9.01623C21.7135 9.70373 21.1549 10.3053 20.4889 10.778Z" fill="#FBFAF7"/>
</g>
</svg>
